<?xml version="1.0" encoding="utf-8"?>
<!-- Generator: Adobe Illustrator 27.5.0, SVG Export Plug-In . SVG Version: 6.00 Build 0)  -->
<svg version="1.1" xmlns="http://www.w3.org/2000/svg" xmlns:xlink="http://www.w3.org/1999/xlink" x="0px" y="0px"
	 viewBox="0 0 750 500" style="enable-background:new 0 0 750 500;" xml:space="preserve">
<g id="BACKGROUND">
	<rect style="fill:#FFFFFF;" width="750" height="500"/>
</g>
<g id="OBJECTS">
	<g>
		<g>
			<g>
				<path style="fill:#F2F2F2;" d="M446.303,164.764c-17.625-2.27-33.752,10.178-36.021,27.803
					c-2.27,17.624,10.178,33.752,27.803,36.021c17.625,2.27,33.752-10.178,36.021-27.803l-31.912-4.109
					C442.194,196.676,444.784,176.558,446.303,164.764z"/>
			</g>
			<path style="fill:#EBEBEB;" d="M452.144,160.255c-1.519,11.794-4.109,31.912-4.109,31.912l31.912,4.109
				C482.216,178.652,469.769,162.525,452.144,160.255z"/>
		</g>
		<g>
			<path style="fill-rule:evenodd;clip-rule:evenodd;fill:#F2F2F2;" d="M145.563,319.526c-1.782-2.476-3.595-4.932-5.341-7.437
				c-2.165-3.106-2.08-5.147,0.547-7.783c3.416-3.427,6.89-6.802,10.483-10.042c2.15-1.939,2.754-3.689,2.458-6.899
				c-0.706-7.651-4.797-10.887-11.775-12.102c-3.194-0.556-6.218-2.025-9.378-2.862c-2.81-0.745-3.445-2.465-3-5.078
				c1.177-6.909,2.317-13.824,3.382-20.75c0.379-2.464,1.722-3.559,4.12-3.524c5.527,0.08,11.061,0.076,16.583,0.304
				c2.56,0.108,3.765-1.082,5.431-2.955c5.117-5.746,4.707-11.085,0.411-16.927c-1.653-2.244-2.667-4.951-4.02-7.423
				c-1.885-3.443-1.495-5.624,1.592-7.87c5.116-3.726,10.298-7.363,15.392-11.121c2.506-1.846,4.796-1.751,6.945,0.412
				c3.964,3.989,7.937,7.972,11.758,12.097c1.341,1.446,2.563,2.112,4.4,1.174c0.292-0.15,0.655-0.224,0.986-0.225
				c7.669-0.016,10.991-4.436,12.158-11.488c0.529-3.195,1.913-6.244,2.833-9.382c0.719-2.45,2.314-3.621,4.795-3.239
				c7.037,1.084,14.069,2.21,21.08,3.448c2.624,0.462,3.667,2.319,3.596,4.949c-0.144,5.414-0.275,10.831-0.244,16.244
				c0.008,1.247,0.308,3.014,1.147,3.639c2.879,2.145,5.944,4.135,9.189,5.643c1.038,0.483,2.959-0.513,4.301-1.181
				c4.436-2.208,8.787-4.584,13.179-6.885c2.804-1.471,5.162-1.091,7.073,1.603c3.731,5.253,7.558,10.436,11.268,15.704
				c2.094,2.97,1.809,4.703-0.91,7.39c-4.001,3.952-7.998,7.907-11.992,11.863c-0.395,0.394-1.141,0.89-1.08,1.213
				c0.727,3.747,1.235,7.599,2.566,11.134c0.511,1.358,2.869,2.281,4.569,2.881c4.678,1.653,9.438,3.086,14.197,4.494
				c2.664,0.787,3.639,2.527,3.235,5.109c-1.064,6.812-2.213,13.611-3.297,20.419c-0.418,2.632-1.783,3.978-4.566,3.899
				c-5.524-0.156-11.055-0.127-16.577-0.335c-2.408-0.091-4.243,0.376-5.02,2.915c-0.095,0.316-0.277,0.644-0.51,0.874
				c-5.919,5.825-2.997,11.36,0.43,16.982c1.518,2.492,2.685,5.198,4.04,7.793c1.317,2.522,0.703,4.638-1.478,6.242
				c-5.372,3.949-10.781,7.852-16.237,11.687c-2.464,1.731-4.97,1.429-7.045-0.705c-3.846-3.955-7.491-8.109-11.425-11.968
				c-0.893-0.876-2.667-1.314-3.973-1.206c-2.222,0.189-4.376,1.306-6.592,1.422c-3.388,0.179-4.523,2.097-5.302,4.991
				c-1.323,4.901-3.022,9.696-4.425,14.576c-0.762,2.649-2.386,3.749-5.022,3.335c-6.924-1.09-13.838-2.229-20.754-3.365
				c-2.609-0.43-3.86-1.815-3.732-4.647c0.252-5.524,0.196-11.061,0.388-16.588c0.074-2.144-0.452-3.745-2.554-4.63
				c-0.828-0.349-1.738-0.727-2.337-1.352c-4.673-4.872-9.235-3.065-13.991-0.071c-2.943,1.854-6.111,3.358-9.228,4.917
				c-3.004,1.5-5.283,0.892-7.368-1.893C149.095,324.505,147.348,322.002,145.563,319.526z M226.849,260.589
				c-5.606-7.738-15.457-9.285-23.238-3.65c-7.562,5.475-9.302,15.825-3.93,23.384c5.432,7.641,16.022,9.35,23.713,3.824
				C231.141,278.583,232.615,268.545,226.849,260.589z"/>
			<path style="fill-rule:evenodd;clip-rule:evenodd;fill:#F2F2F2;" d="M317.731,233.124c-1.278-0.884-2.566-1.754-3.831-2.658
				c-1.569-1.121-1.876-2.115-1.065-3.828c1.054-2.227,2.146-4.44,3.318-6.608c0.702-1.297,0.694-2.24,0.004-3.729
				c-1.643-3.552-4.16-4.407-7.715-3.8c-1.628,0.278-3.33,0.088-4.99,0.226c-1.474,0.122-2.072-0.596-2.305-1.925
				c-0.613-3.518-1.246-7.031-1.916-10.536c-0.239-1.247,0.22-2.002,1.376-2.394c2.668-0.905,5.323-1.851,8.012-2.683
				c1.246-0.385,1.621-1.162,2.101-2.344c1.476-3.63,0.369-6.122-2.689-8.194c-1.176-0.794-2.124-1.92-3.195-2.876
				c-1.492-1.331-1.677-2.443-0.579-4.049c1.819-2.66,3.686-5.288,5.49-7.961c0.887-1.314,2.002-1.659,3.404-0.988
				c2.583,1.239,5.169,2.473,7.706,3.801c0.89,0.465,1.59,0.576,2.312-0.187c0.114-0.121,0.277-0.219,0.435-0.276
				c3.678-1.314,4.519-4.001,3.875-7.586c-0.29-1.624-0.146-3.324-0.24-4.985c-0.073-1.3,0.493-2.133,1.749-2.372
				c3.562-0.681,7.13-1.34,10.705-1.942c1.338-0.224,2.154,0.488,2.569,1.763c0.855,2.622,1.716,5.244,2.655,7.837
				c0.215,0.596,0.661,1.395,1.171,1.55c1.747,0.54,3.558,0.972,5.373,1.141c0.579,0.054,1.332-0.751,1.861-1.3
				c1.753-1.816,3.436-3.699,5.151-5.552c1.095-1.183,2.291-1.404,3.667-0.437c2.686,1.885,5.408,3.72,8.087,5.616
				c1.511,1.068,1.67,1.949,0.824,3.701c-1.247,2.579-2.49,5.159-3.733,7.739c-0.122,0.256-0.395,0.622-0.311,0.766
				c0.989,1.674,1.889,3.437,3.131,4.907c0.477,0.565,1.766,0.605,2.685,0.602c2.525-0.004,5.055-0.128,7.579-0.265
				c1.412-0.077,2.176,0.593,2.423,1.901c0.651,3.45,1.26,6.909,1.9,10.362c0.249,1.334-0.177,2.213-1.526,2.65
				c-2.677,0.867-5.327,1.826-8.013,2.667c-1.171,0.366-1.973,0.903-1.911,2.254c0.007,0.167-0.023,0.357-0.096,0.507
				c-1.848,3.806,0.499,5.963,3.102,8.076c1.154,0.937,2.175,2.037,3.268,3.052c1.061,0.985,1.129,2.105,0.355,3.247
				c-1.904,2.812-3.835,5.607-5.799,8.379c-0.887,1.25-2.141,1.533-3.502,0.863c-2.519-1.243-4.977-2.614-7.523-3.795
				c-0.578-0.268-1.505-0.176-2.114,0.098c-1.033,0.471-1.877,1.373-2.92,1.808c-1.596,0.663-1.814,1.777-1.695,3.299
				c0.203,2.577,0.204,5.168,0.364,7.751c0.086,1.401-0.505,2.205-1.84,2.456c-3.509,0.658-7.023,1.291-10.535,1.925
				c-1.326,0.237-2.161-0.214-2.583-1.594c-0.823-2.694-1.794-5.342-2.644-8.027c-0.331-1.041-0.855-1.721-2.016-1.786
				c-0.456-0.026-0.958-0.053-1.352-0.251c-3.074-1.541-4.954,0.104-6.726,2.353c-1.096,1.391-2.361,2.654-3.589,3.933
				c-1.187,1.233-2.384,1.329-3.862,0.349C320.276,234.912,319.009,234.009,317.731,233.124z M346.689,190.976
				c-4.009-2.757-9.002-1.819-11.774,2.212c-2.697,3.919-1.766,9.182,2.102,11.894c3.91,2.741,9.283,1.755,12.031-2.209
				C351.819,198.879,350.815,193.811,346.689,190.976z"/>
		</g>
		<g>
			
				<rect x="170.399" y="78.622" style="fill:none;stroke:#222222;stroke-width:0.5;stroke-linecap:round;stroke-linejoin:round;stroke-miterlimit:10;" width="102.891" height="51.759"/>
			<rect x="179.129" y="83.014" style="fill:#EBEBEB;" width="42.715" height="42.976"/>
			
				<line style="fill:none;stroke:#222222;stroke-width:0.5;stroke-linecap:round;stroke-linejoin:round;stroke-miterlimit:10;" x1="179.129" y1="83.014" x2="221.844" y2="125.989"/>
			
				<line style="fill:none;stroke:#222222;stroke-width:0.5;stroke-linecap:round;stroke-linejoin:round;stroke-miterlimit:10;" x1="221.844" y1="83.014" x2="179.129" y2="125.989"/>
			<rect x="230.627" y="86.15" style="fill:#EBEBEB;" width="31.997" height="4.705"/>
			<rect x="230.627" y="93.365" style="fill:#222222;" width="31.997" height="1.098"/>
			<rect x="230.627" y="98.384" style="fill:#222222;" width="31.997" height="1.098"/>
			<rect x="230.627" y="101.992" style="fill:#EBEBEB;" width="26.585" height="2.902"/>
		</g>
		<g>
			<rect x="463.475" y="111.173" style="fill:#EBEBEB;" width="83.365" height="8.24"/>
			<rect x="476.852" y="122.708" style="fill:#EBEBEB;" width="50.019" height="33.249"/>
			<rect x="480.874" y="129.833" style="fill:#222222;" width="30.026" height="3.393"/>
			<rect x="480.874" y="134.825" style="fill:#222222;" width="25.737" height="3.393"/>
			<rect x="520.085" y="126.101" style="fill:#FFFFFF;" width="3.732" height="3.732"/>
			<path style="fill:#FFFFFF;" d="M544.271,115.292c0,1.205-0.977,2.181-2.181,2.181s-2.181-0.976-2.181-2.181
				c0-1.205,0.977-2.181,2.181-2.181S544.271,114.088,544.271,115.292z"/>
			
				<rect x="463.475" y="111.173" style="fill:none;stroke:#222222;stroke-width:0.5;stroke-linecap:round;stroke-linejoin:round;stroke-miterlimit:10;" width="83.365" height="70.569"/>
		</g>
	</g>
	<g>
		<g>
			<rect x="263.317" y="341.287" style="fill:#6978ED;" width="64.258" height="108.195"/>
			<rect x="327.576" y="341.287" style="fill:#3F57E0;" width="18.359" height="108.195"/>
			<rect x="374.071" y="303.602" style="fill:#6978ED;" width="64.258" height="145.88"/>
			<rect x="438.329" y="303.602" style="fill:#3F57E0;" width="18.359" height="145.88"/>
			<rect x="484.824" y="257.056" style="fill:#6978ED;" width="64.259" height="192.426"/>
			<rect x="549.083" y="257.056" style="fill:#3F57E0;" width="18.359" height="192.426"/>
			<rect x="592.578" y="216.405" style="fill:#6978ED;" width="64.258" height="233.078"/>
			<rect x="656.837" y="216.405" style="fill:#3F57E0;" width="18.359" height="233.078"/>
		</g>
		
			<line style="fill:none;stroke:#222222;stroke-width:0.5;stroke-linecap:round;stroke-linejoin:round;stroke-miterlimit:10;" x1="39.729" y1="449.31" x2="710.36" y2="449.31"/>
		<path style="fill:#EBEBEB;" d="M263.317,408.785v23.095c0,0,259.767-15.726,313.198-195.489l9.075,2.382l-8.505-18.683
			l-15.545,11.985l7.684,2.5C569.226,234.574,514.597,381.668,263.317,408.785z"/>
	</g>
	<g>
		<g>
			<g>
				<path style="fill:#C1584F;" d="M191.936,253.68c7.308-4.079,5.497-5.691,5.497-5.691s-7.838,4.257-8.154,4.429
					c-2.255,1.23-3.512,1.368,1.7-1.608c5.942-3.394,4.935-5.698,4.935-5.698l-9.788,4.904c8.05-5.417,6.374-7.425,6.374-7.425
					l-11.292,6.554c0.749-7.573-2.29-8.703-2.145-6.334c0.051,0.831-0.118,1.958-0.359,3.072c-0.446,2.065-1.423,3.964-2.708,5.642
					c-1.575,2.056-1.961,4.402-1.961,4.402l-19.885,7.031c0,0-2.61-25.777-4.927-37.435c0,0-3.68-10.959-14.241-9.708
					c0,0,3.135,39.906,4.886,50.75c0.498,3.084,0.556,12.398,9.296,11.566c8.345-0.793,28.811-16.541,28.811-16.541l0,0
					c1.044-0.161,7.47-1.237,13.477-4.098c6.56-3.124,5.631-4.707,5.631-4.707S184.684,257.727,191.936,253.68z"/>
				<path style="fill:#F97869;" d="M136.093,215.086c-0.046,0.005-0.084,0.01-0.13,0.015
					C136.045,215.092,136.093,215.086,136.093,215.086z"/>
			</g>
			<path style="fill:none;stroke:#222222;stroke-width:0.5;stroke-linecap:round;stroke-linejoin:round;stroke-miterlimit:10;" d="
				M178.788,256.29c0,0,4.484-2.616,7.111,0.219"/>
			<path style="fill:none;stroke:#222222;stroke-width:0.5;stroke-linecap:round;stroke-linejoin:round;stroke-miterlimit:10;" d="
				M184.395,249.383c0.299,0.016,3.113,3.573,4.671,6.784"/>
			
				<line style="fill:none;stroke:#222222;stroke-width:0.5;stroke-linecap:round;stroke-linejoin:round;stroke-miterlimit:10;" x1="182.603" y1="251.389" x2="182.406" y2="255.2"/>
		</g>
		<path style="fill:#6978ED;" d="M132.708,213.16c0,0,0.256,0.028,0.708,0.103c9.333,1.547,16.562,9.015,17.954,18.372l4.39,29.5
			l15.436-4.626l3.774,7.318c0,0-14.934,16.003-30.116,16.003L132.708,213.16z"/>
		<g>
			<path style="fill:none;stroke:#020B31;stroke-width:0.5;stroke-linecap:round;stroke-linejoin:round;stroke-miterlimit:10;" d="
				M87.367,424.463c-0.752,1.457-4.333,3.121-4.333,3.121s-1.106-3.611-0.354-5.068c0.751-1.457,2.41-2.202,3.704-1.664
				C87.679,421.39,88.119,423.007,87.367,424.463z"/>
			<path style="fill:none;stroke:#020B31;stroke-width:0.5;stroke-linecap:round;stroke-linejoin:round;stroke-miterlimit:10;" d="
				M86.736,430.273c-1.477,0.013-3.685-2.653-3.685-2.653s3.092-2.956,4.569-2.97c1.477-0.013,2.476,1.235,2.232,2.787
				C89.608,428.99,88.213,430.259,86.736,430.273z"/>
			<g>
				<polygon style="fill:#F2F2F2;" points="82.601,421.327 82.515,421.141 93.326,401.086 80.998,387.532 68.082,415.306 
					70.408,421.845 				"/>
				<path style="fill:#6978ED;" d="M88.625,444.247l11.164,2.293l-5.824-5.237c-2.376-2.136-4.294-4.732-5.638-7.631l-5.726-12.345
					l-5.26,0.224c-4.122,0.175-7.877-2.357-9.26-6.244l0,0l-8.153,6.301l17.008,16.468
					C80.167,441.202,84.221,443.343,88.625,444.247z"/>
			</g>
			<path style="fill:#222222;" d="M59.929,421.607L59.929,421.607c-1.538,1.082-1.693,3.306-0.319,4.591l16.287,15.234
				c3.182,2.976,7.124,5.015,11.392,5.891l9.415,1.933c1.675,0.344,3.214-1.011,3.084-2.716l0,0l-11.164-2.293
				c-4.404-0.904-8.458-3.046-11.688-6.173L59.929,421.607z"/>
		</g>
		<g>
			<path style="fill:none;stroke:#020B31;stroke-width:0.5;stroke-linecap:round;stroke-linejoin:round;stroke-miterlimit:10;" d="
				M149.167,432.833c0.409,1.587-1.154,5.214-1.154,5.214s-3.23-1.958-3.639-3.545c-0.41-1.587,0.331-3.247,1.655-3.708
				C147.352,430.333,148.757,431.246,149.167,432.833z"/>
			<path style="fill:none;stroke:#020B31;stroke-width:0.5;stroke-linecap:round;stroke-linejoin:round;stroke-miterlimit:10;" d="
				M152.565,437.587c-1.093,0.993-4.516,0.475-4.516,0.475s0.338-4.265,1.43-5.258c1.093-0.993,2.669-0.728,3.521,0.593
				C153.852,434.717,153.657,436.594,152.565,437.587z"/>
			<path style="fill:#6978ED;" d="M174.796,445.733l-31.561-11.874c-1.584,0.521-3.048,1.156-4.336,1.802
				c-3.805,1.909-8.292,1.888-12.015-0.177l-0.013-0.007l0,0l-2.074,10.257H174.796z"/>
			<path style="fill:#F2F2F2;" d="M138.899,435.66c1.288-0.646,2.751-1.281,4.336-1.802l1.115-32.077h-15.624l-1.854,33.695l0,0
				l0.013,0.007C130.607,437.548,135.094,437.57,138.899,435.66z"/>
		</g>
		<path style="fill:#222222;" d="M124.798,445.733v0.785c0,1.638,1.328,2.965,2.965,2.965h44.458c1.422,0,2.574-1.152,2.574-2.574
			v-1.176H124.798z"/>
		<g>
			<path style="fill:#222222;" d="M143.938,281.372l2.346,146.852c0,0-5.508,5.635-21.483,2.667l-0.357-71.995l-2.184-56.772
				l-1.14-0.456l-4.694,46.742c-0.442,4.405-1.582,8.712-3.377,12.76l-25.315,57.242c0,0-14.244,2.036-20.719-8.598l23.205-50.07
				c2.269-4.665,3.648-9.712,4.069-14.882l4.674-63.489H143.938z"/>
			<polygon style="fill:#222222;" points="122.26,302.123 128.113,305.299 124.228,330.653 			"/>
			<path style="fill:none;stroke:#FFFFFF;stroke-width:0.5;stroke-linecap:round;stroke-linejoin:round;stroke-miterlimit:10;" d="
				M97.18,307.124c0,0,10.243,2.183,12.592-18.832"/>
			<path style="fill:none;stroke:#FFFFFF;stroke-width:0.5;stroke-linecap:round;stroke-linejoin:round;stroke-miterlimit:10;" d="
				M98.561,286.97c0,0,29.938,4.774,45.449-1.047"/>
			<path style="fill:none;stroke:#FFFFFF;stroke-width:0.5;stroke-linecap:round;stroke-linejoin:round;stroke-miterlimit:10;" d="
				M136.315,287.92c0,0-0.289,17.884,7.623,17.793"/>
			<path style="fill:#6978ED;" d="M127.724,212.373H115.03c0,0-13.676,2.805-13.676,15.541c0,12.736-3.866,55.493-3.866,55.493
				s22.061,5.572,47.419,0.569l-0.644-51.589l-0.391-5.066C143.219,218.885,136.184,212.373,127.724,212.373z"/>
			<path style="fill:none;stroke:#222222;stroke-width:0.5;stroke-miterlimit:10;" d="M144.907,283.975l-0.644-51.589l-0.391-5.066
				c-0.652-8.435-7.687-14.947-16.147-14.947"/>
			<g>
				<path style="fill:#222222;" d="M140.474,183.25c-1.36-2.754-4.585-1.81-4.585-1.81s0.456-8.598-6.358-12.947
					c-5.884-3.756-12.407-4.11-17.879-0.158c-4.136,2.988-4.701,7.952-4.452,11.582c-2.618,0.051-4.901,1.071-5.87,3.861
					c-2.01,5.789,2.585,8.186,2.585,8.186s-2.419,5.306,3.435,7.081c5.854,1.775,10.201,8.475,10.201,8.475
					s11.174-8.404,16.372-8.79c8.768-0.652,5.007-10.059,5.007-10.059S142.211,186.767,140.474,183.25z"/>
				<g>
					<g>
						<path style="fill:#C1584F;" d="M128.69,213.382l-0.685-6.799c-0.397,0.121-0.635,0.166-0.635,0.166s-5.725,0.827-10.004-3.224
							l-0.841,9.681l10.862,5.537L128.69,213.382z"/>
					</g>
				</g>
				<path style="fill:#F47365;" d="M127.37,206.749c0,0-5.725,0.827-10.004-3.224l-0.002,0.121c0.255,0.473,0.521,0.895,0.797,1.242
					c0.356,0.449,0.734,0.838,1.12,1.203c3.169,3,7.126,3.324,8.968,3.29l-0.243-2.799
					C127.608,206.704,127.37,206.749,127.37,206.749z"/>
				<g>
					<path style="fill:#C1584F;" d="M126.434,175.649c0,0,8.813,5.393,9.703,17.341c0.75,10.074-5.997,12.941-8.132,13.593
						c-0.397,0.121-0.635,0.166-0.635,0.166s-5.725,0.827-10.004-3.224c-0.385-0.365-0.763-0.755-1.12-1.203
						c-1.923-2.418-3.428-8.118-3.028-13.633C113.218,188.689,124.873,184.166,126.434,175.649z"/>
					<g>
						<g>
							<path style="fill:#222222;" d="M121.277,190.231c0.059,0.581,0.577,1.005,1.159,0.947c0.581-0.059,1.005-0.577,0.947-1.159
								c-0.059-0.581-0.577-1.005-1.159-0.947C121.643,189.13,121.219,189.649,121.277,190.231z"/>
							
								<path style="fill:none;stroke:#222222;stroke-width:0.5;stroke-linecap:round;stroke-linejoin:round;stroke-miterlimit:10;" d="
								M122.488,184.68c-0.863,0.24-1.897,0.763-2.871,1.857"/>
							<path style="fill:#222222;" d="M131.824,189.168c0.059,0.581-0.365,1.1-0.947,1.159c-0.582,0.059-1.1-0.365-1.159-0.947
								c-0.058-0.582,0.365-1.1,0.947-1.159C131.246,188.163,131.765,188.586,131.824,189.168z"/>
							
								<path style="fill:none;stroke:#222222;stroke-width:0.5;stroke-linecap:round;stroke-linejoin:round;stroke-miterlimit:10;" d="
								M132.24,187.311c-0.86-0.252-1.886-0.79-2.844-1.898"/>
							
								<path style="fill:none;stroke:#222222;stroke-width:0.5;stroke-linecap:round;stroke-linejoin:round;stroke-miterlimit:10;" d="
								M126.317,187.599c0,0,0.046,2.117,2.027,3.764c2.416,2.008,1.689,2.929-0.254,3.887"/>
							<path style="opacity:0.5;fill:#F43D4F;" d="M119.536,193.538c0.657-0.893,1.513,0.192,1.513,0.192s0.591-1.405,1.438-0.713
								c0.734,0.6-0.286,2.702-0.961,2.835C120.852,195.985,118.975,194.301,119.536,193.538z"/>
							<path style="opacity:0.5;fill:#F43D4F;" d="M134.285,194.865c-0.487-0.996-1.523-0.081-1.523-0.081s-0.33-1.488-1.288-0.958
								c-0.83,0.459-0.2,2.709,0.439,2.961C132.554,197.038,134.702,195.716,134.285,194.865z"/>
							
								<path style="fill:none;stroke:#222222;stroke-width:0.5;stroke-linecap:round;stroke-linejoin:round;stroke-miterlimit:10;" d="
								M128.201,198.281c0,0-3.031,0.93-4.779-1.948"/>
						</g>
						<g>
							<g>
								<path style="fill:#C1584F;" d="M112.835,197.074c0,0-4.254,0.158-4.731-4.242c-0.481-4.434,3.871-3.904,3.871-3.904
									S111.502,192.158,112.835,197.074z"/>
								
									<path style="fill:none;stroke:#222222;stroke-width:0.5;stroke-linecap:round;stroke-linejoin:round;stroke-miterlimit:10;" d="
									M110.965,190.557c0,0-1.698-0.069-2.063,1.824"/>
								
									<path style="fill:none;stroke:#222222;stroke-width:0.5;stroke-linecap:round;stroke-linejoin:round;stroke-miterlimit:10;" d="
									M109.988,190.994c0,0-0.268,1.85,1.169,3.239"/>
							</g>
						</g>
					</g>
				</g>
			</g>
			<path style="fill:#6978ED;" d="M100.929,238.967c0,0,2.547-0.509,7.138-7.674l-9.506,38.691L100.929,238.967z"/>
			<g>
				<path style="fill:none;stroke:#222222;stroke-width:0.5;stroke-miterlimit:10;" d="M112.492,213.16
					c0,0,1.448,8.843,13.826,10.365l1.069-4.781l4.442,3.042c0,0,3.589-0.35,2.509-8.002"/>
				<polygon style="fill:#222222;" points="127.387,218.744 126.429,223.027 129.292,225.264 131.543,221.59 				"/>
				<path style="fill:#222222;" d="M126.418,262.825l1.237-40.644l2.17-0.385c3.089,12.738,4.572,40.785,4.572,40.785l-3.609,4.429
					L126.418,262.825z"/>
			</g>
		</g>
		<path style="fill:none;stroke:#FFFFFF;stroke-width:0.5;stroke-linecap:round;stroke-linejoin:round;stroke-miterlimit:10;" d="
			M99.789,307.189c0,0-1.111,43.412-2.609,46.781c-1.498,3.369-27.907,58.775-27.907,58.775"/>
		<path style="fill:none;stroke:#FFFFFF;stroke-width:0.5;stroke-linecap:round;stroke-linejoin:round;stroke-miterlimit:10;" d="
			M122.26,302.123c0,0,6.908,44.355,7.21,58.232c0.302,13.877,0.134,71.399,0.134,71.399"/>
		<path style="fill:#C1584F;" d="M88.003,204.062l-1.966-33.444l0.024-0.005c0,0,1.862-2.175,1.969-5.838
			c0.107-3.663,1.428-9.87,1.428-9.87s-1.444-0.775-2.483,3.342c-1.039,4.117-1.766,3.052-1.766,3.052l-4.028-13.896
			c0,0-2.281-0.308,0.316,9.138l-3.927-9.625c0,0-1.166,0.036-1.143,1.297l-0.333-0.883c0,0-1.954,0.381,0.07,7.137
			c1.339,4.47,0.893,4.862-0.459,1.97c-1.352-2.892-2.451-4.782-3.479-4.34l5.557,16.908c0.877,2.309,2.365,2.77,2.365,2.77
			l0.004-0.001l-5.915,23.821c-1.226,4.939,0.139,10.163,3.626,13.87l23.31,24.782l10.257-20.496L88.003,204.062z"/>
		<g>
			<path style="fill:none;stroke:#222222;stroke-width:0.5;stroke-linecap:round;stroke-linejoin:round;stroke-miterlimit:10;" d="
				M85.209,161.299c0,0-2.976,0.905-2.926,5.556"/>
			<path style="fill:none;stroke:#222222;stroke-width:0.5;stroke-linecap:round;stroke-linejoin:round;stroke-miterlimit:10;" d="
				M82.609,156.546c0,0-3.393-0.312-6.1,2.903"/>
			
				<line style="fill:none;stroke:#222222;stroke-width:0.5;stroke-linecap:round;stroke-linejoin:round;stroke-miterlimit:10;" x1="76.427" y1="148.213" x2="79.297" y2="157.267"/>
		</g>
		<path style="fill:#6978ED;" d="M76.969,210.584c9.021,12.227,23.961,28.383,23.961,28.383l13.798-26.482l-21.157-6.993
			l-4.583-1.967l-2.029-30.003l-7.399,0.644l-5.445,21.803C72.852,201.023,73.876,206.392,76.969,210.584z"/>
		
			<line style="fill:none;stroke:#222222;stroke-width:0.5;stroke-linecap:round;stroke-linejoin:round;stroke-miterlimit:10;" x1="88.987" y1="203.525" x2="80.871" y2="204.611"/>
		<polygon style="fill:#F2F2F2;" points="79.559,174.167 80.153,171.776 86.037,170.618 86.212,173.587 		"/>
		
			<line style="fill:none;stroke:#222222;stroke-width:0.5;stroke-linecap:round;stroke-linejoin:round;stroke-miterlimit:10;" x1="78.805" y1="177.87" x2="87.252" y2="177.87"/>
		<path style="fill:none;stroke:#222222;stroke-width:0.5;stroke-linecap:round;stroke-linejoin:round;stroke-miterlimit:10;" d="
			M152.279,267.734c0.756-5.4,3.41-6.423,3.41-6.423l-5.438,1.845"/>
		<polygon style="fill:#F2F2F2;" points="171.38,256.866 174.035,255.927 177.974,261.59 174.971,263.827 		"/>
		
			<line style="fill:none;stroke:#222222;stroke-width:0.5;stroke-linecap:round;stroke-linejoin:round;stroke-miterlimit:10;" x1="167.804" y1="257.526" x2="171.642" y2="267.011"/>
		<g>
			<path style="fill:#676768;" d="M140.877,254.393h73.087v-4.48h-68.607C142.883,249.913,140.877,251.918,140.877,254.393
				L140.877,254.393z"/>
			<polygon style="fill:#7C7C7C;" points="213.963,254.393 166.384,254.393 180.333,219.13 227.912,219.13 			"/>
			<path style="fill:#FFFFFF;" d="M201.842,236.465c0,1.296-1.05,2.346-2.346,2.346c-1.296,0-2.347-1.05-2.347-2.346
				c0-1.296,1.051-2.346,2.347-2.346C200.792,234.119,201.842,235.169,201.842,236.465z"/>
		</g>
		
			<line style="fill:none;stroke:#222222;stroke-width:0.5;stroke-linecap:round;stroke-linejoin:round;stroke-miterlimit:10;" x1="78.805" y1="160.986" x2="82.885" y2="163.633"/>
	</g>
	<g>
		<g>
			
				<rect x="249.233" y="167.369" transform="matrix(0.4522 -0.8919 0.8919 0.4522 -25.0716 343.8575)" style="fill:#6978ED;" width="36.3" height="49.938"/>
			<polygon style="fill:#222222;" points="250.3,163.329 229.954,193.713 236.905,197.237 253.319,164.86 			"/>
			
				<line style="fill:none;stroke:#FFFFFF;stroke-width:0.5;stroke-linecap:round;stroke-linejoin:round;stroke-miterlimit:10;" x1="245.622" y1="180.042" x2="290.163" y2="202.623"/>
			<path style="fill:none;stroke:#020B31;stroke-miterlimit:10;" d="M267.404,172c2.382-4.698,8.12-6.575,12.818-4.194
				c4.698,2.382,6.575,8.12,4.194,12.818"/>
			<path style="fill:#020B31;" d="M258.548,189.469L258.548,189.469c-0.631-0.32-0.884-1.091-0.564-1.723l1.159-2.287
				c0.32-0.632,1.091-0.884,1.723-0.564l0,0c0.631,0.32,0.884,1.091,0.564,1.723l-1.159,2.287
				C259.951,189.537,259.179,189.789,258.548,189.469z"/>
			<path style="fill:#020B31;" d="M275.56,198.093L275.56,198.093c-0.632-0.32-0.884-1.091-0.564-1.723l1.159-2.287
				c0.32-0.632,1.091-0.884,1.723-0.564l0,0c0.631,0.32,0.884,1.091,0.564,1.723l-1.159,2.287
				C276.962,198.161,276.191,198.413,275.56,198.093z"/>
		</g>
		<path style="fill:#F2F2F2;" d="M407.955,293.14c0.031-0.088,0.059-0.18,0.092-0.265c1.287-3.406,1.917-13.663,1.901-19.666
			l13.363,2.067l-0.435,12.247c-0.073,2.055,0.498,4.982,2.457,5.608c2.641,0.845,6.594,1.912,10.179,3.044
			c-1.285,1.03-3.248,2.09-5.938,2.148C425.274,298.415,414.454,293.659,407.955,293.14z"/>
		<path style="fill:#F2F2F2;" d="M294.846,304.949c0.082-0.045,0.164-0.094,0.245-0.136c3.233-1.676,10.55-8.89,14.548-13.369
			l8.566,10.462l-8.502,8.826c-1.427,1.481-2.956,4.041-1.916,5.815c1.401,2.392,3.631,5.826,5.544,9.063
			c-1.644-0.091-3.813-0.613-5.854-2.367C304.215,320.441,299.337,309.675,294.846,304.949z"/>
		<path style="fill:#6978ED;" d="M444.309,296.637l-21.375-12.691l-3.563,2.561c0,0-0.557,4.564-3.785,4.898
			c-3.229,0.334-6.68-4.119-6.68-4.119c-3.679,3.262-3.679,8.905-3.158,12.691h48.082
			C450.331,297.916,444.309,296.637,444.309,296.637z"/>
		<g>
			<g>
				<path style="fill:#6978ED;" d="M313.99,328.585l-1.417-19.513l-4.137-1.46c0,0-4.064,2.151-6.183-0.307
					c-2.119-2.459-0.437-7.835-0.437-7.835c-4.78-1.155-9.41,2.07-12.219,4.661l16.732,27.036l11.597,6.115
					C317.618,333.23,313.99,328.585,313.99,328.585z"/>
			</g>
		</g>
		<g>
			
				<line style="fill:none;stroke:#222222;stroke-width:0.5;stroke-linecap:round;stroke-linejoin:round;stroke-miterlimit:10;" x1="432.575" y1="289.67" x2="428.028" y2="292.101"/>
			
				<line style="fill:none;stroke:#222222;stroke-width:0.5;stroke-linecap:round;stroke-linejoin:round;stroke-miterlimit:10;" x1="436.589" y1="292.101" x2="432.041" y2="294.531"/>
			<g>
				<path style="fill:#222222;" d="M456.221,303.874v-1.447c-0.232-0.9-1.156-1.723-2.39-2.449h-48.082
					c0.315,2.286,0.82,3.896,0.82,3.896H456.221z"/>
			</g>
		</g>
		<g>
			
				<line style="fill:none;stroke:#222222;stroke-width:0.5;stroke-linecap:round;stroke-linejoin:round;stroke-miterlimit:10;" x1="313.385" y1="320.255" x2="308.792" y2="317.912"/>
			
				<line style="fill:none;stroke:#222222;stroke-width:0.5;stroke-linecap:round;stroke-linejoin:round;stroke-miterlimit:10;" x1="313.685" y1="324.938" x2="309.091" y2="322.594"/>
		</g>
		<path style="fill:#222222;" d="M317.927,337.281c0,0,1.467,2.177,0.628,3.769l-15.462-8.153l-16.515-28.202
			c0,0,0.651-1.379,3.02-0.564l16.732,27.036L317.927,337.281z"/>
		<path style="fill:#FB7869;" d="M364.251,144.945L364.251,144.945c7.656,5.386,17.108,7.584,26.355,6.127l26.197-4.126
			c0,0,9.383-0.381,11.376-0.447c2.294-0.076,2.142-1.377,2.142-1.377l-5.736-0.841c0,0,7.401,0.533,8.016-2.186l-8.415-0.456
			c0,0,9.23-1.354,8.461-3.682l-8.805,0.359c0,0,7.355-1.92,6.501-4.05l-11.893,1.804l2.488-5.943c0,0-2.413-1.372-6.449,5.654
			c-1.009,1.756-10.985,2.737-23.51,3.09c-6.565,0.185-13.063-1.397-18.787-4.617l-1.102-0.62L364.251,144.945z"/>
		<path style="fill:#6978ED;" d="M358.75,147.78l-8.403-3.375l-4.129-17.162c0,0,6.467-3.442,14.268,0
			c7.801,3.442,21.798,10.096,21.798,10.096c7.128,0.819,28.989-0.171,28.989-0.171s1.425,6.643,0,12.005l-10.856,2.273
			C386.471,154.366,371.972,153.091,358.75,147.78z"/>
		<path style="fill:#222222;" d="M343.531,211.768l0.848,33.6c0,0-0.026,4.996-5.992,11.191s-34.188,36.024-34.188,36.024
			s2.753,16.291,9.637,20.192l47.955-48.185c0,0,8.26-5.277,8.031-19.274c-0.124-7.555-0.113-18.314-0.076-26.622
			c-8.84-0.056-15.586-0.713-19.963-2.901C347.321,214.562,345.266,213.199,343.531,211.768z"/>
		<path style="fill:#222222;" d="M413.418,190.553h-78.472c0,0-2.496,12.067,8.586,21.214c1.734,1.432,3.79,2.794,6.252,4.025
			c4.376,2.188,11.122,2.844,19.963,2.901c0.43,0.003,0.86,0.006,1.3,0.006c9.484,0,39.771,0,39.771,0l-4.436,59.351
			c9.025,5.66,22.18,4.895,22.18,4.895l6.578-73.883C433.303,189.483,413.418,190.553,413.418,190.553z"/>
		<path style="fill:none;stroke:#FFFFFF;stroke-width:0.5;stroke-linecap:round;stroke-linejoin:round;stroke-miterlimit:10;" d="
			M342.135,190.553c0,0-0.966,22.233,22.233,22.233c23.198,0,52.721,0,52.721,0l-6.529,67.358"/>
		
			<line style="fill:none;stroke:#FFFFFF;stroke-width:0.5;stroke-linecap:round;stroke-linejoin:round;stroke-miterlimit:10;" x1="346.218" y1="204.532" x2="358.005" y2="190.543"/>
		<path style="fill:none;stroke:#FFFFFF;stroke-width:0.5;stroke-linecap:round;stroke-linejoin:round;stroke-miterlimit:10;" d="
			M410.817,218.699c0,0,2.715-3.671,8.337-7.687"/>
		<path style="fill:none;stroke:#FFFFFF;stroke-width:0.5;stroke-linecap:round;stroke-linejoin:round;stroke-miterlimit:10;" d="
			M410.749,219.615c0.01-0.14,4.275-2.407,9.897-3.21"/>
		<path style="fill:none;stroke:#FFFFFF;stroke-width:0.5;stroke-linecap:round;stroke-linejoin:round;stroke-miterlimit:10;" d="
			M357.478,217.953c-0.196,0.856-0.715,16.841-1,26.036c-0.127,4.112-1.761,8.028-4.592,11.014l-45.001,47.47"/>
		<path style="fill:none;stroke:#FFFFFF;stroke-width:0.5;stroke-linecap:round;stroke-linejoin:round;stroke-miterlimit:10;" d="
			M344.379,245.368c0,0,4.04,0.396,6.934,3.466"/>
		<path style="fill:none;stroke:#FFFFFF;stroke-width:0.5;stroke-linecap:round;stroke-linejoin:round;stroke-miterlimit:10;" d="
			M344.379,246.616c0,0,3.761,1.861,5.634,5.124"/>
		<path style="fill:none;stroke:#222222;stroke-width:0.5;stroke-linecap:round;stroke-linejoin:round;stroke-miterlimit:10;" d="
			M422.519,137.168c0,0,2.371,3.059,1.912,8.107"/>
		<path style="fill:none;stroke:#222222;stroke-width:0.5;stroke-linecap:round;stroke-linejoin:round;stroke-miterlimit:10;" d="
			M420.014,138.277c0,0-0.459,2.639-4.13,3.958"/>
		
			<line style="fill:none;stroke:#222222;stroke-width:0.5;stroke-linecap:round;stroke-linejoin:round;stroke-miterlimit:10;" x1="418.187" y1="140.971" x2="421.907" y2="144.931"/>
		<path style="fill:#FB7869;" d="M279.169,159.594c5.33-5.149,32.165-30.702,40.55-31.434l0,0l2.061,13.055l-1.243,0.236
			c-6.384,1.212-12.335,4.114-17.186,8.437c-9.429,8.4-16.285,15.62-16.142,17.651c0.293,4.15-1.894,5.651-1.894,5.651l-1.328-2.711
			l0,0c-0.678,0.374-1.467,0.483-2.22,0.302c-1.334-0.321-3.394-1.204-4.898-3.636C276.019,165.768,276.678,162,279.169,159.594z"/>
		<path style="fill:#6978ED;" d="M288.831,164.331c-7.77-3.53-8.01-6.81-8.01-6.81c7.331-12.67,21.297-22.62,29.82-27.859
			c12.526-7.699,27.904-9.652,41.712-4.599c0.485,0.178,0.968,0.363,1.449,0.557l0.282,0.113l8.99,27.344l6.753,37.477h-34.881
			l-11.769-47.902c0,0-10.163,1.296-18.841,7.827C295.656,157.009,288.831,164.331,288.831,164.331z"/>
		<polygon style="fill:#FB7869;" points="339.647,114.462 339.647,122.617 350.431,128.159 353.802,125.62 352.073,114.462 		"/>
		<path style="fill:#FB7869;" d="M339.647,114.462l0.022,0.517c2.481,3.147,7.098,5.951,13.301,5.276l-0.897-5.792H339.647z"/>
		<path style="fill:#FB7869;" d="M354.308,88.383c1.826,2.039,2.724,5.034,3.558,7.641c1.777,5.558,4.955,18.45-4.089,21.018
			c-11.284,3.205-15.782-3.764-18.452-8.343c-2.67-4.576-3.658-16.801,5.256-21.494C347.179,83.731,351.653,85.419,354.308,88.383z"
			/>
		<g>
			<path style="fill:none;stroke:#222222;stroke-width:0.5;stroke-linecap:round;stroke-linejoin:round;stroke-miterlimit:10;" d="
				M350.431,99.583c0,0,0.501,1.812,2.749,3.289c2.633,1.73,2.249,2.536,0.534,3.869"/>
			<path style="opacity:0.5;fill:#F43D4F;" d="M344.499,105.288c0.466-1.01,1.524-0.117,1.524-0.117s0.297-1.499,1.269-0.99
				c0.842,0.441,0.263,2.711-0.373,2.978C346.285,107.426,344.101,106.151,344.499,105.288z"/>
			<path style="opacity:0.5;fill:#F43D4F;" d="M359.224,104.016c-0.679-0.88-1.512,0.227-1.512,0.227s-0.624-1.395-1.458-0.682
				c-0.722,0.618,0.349,2.701,1.028,2.82C357.962,106.499,359.805,104.768,359.224,104.016z"/>
			<path style="fill:none;stroke:#222222;stroke-width:0.5;stroke-linecap:round;stroke-linejoin:round;stroke-miterlimit:10;" d="
				M354.433,109.696c0,0-2.789,1.524-5.086-0.951"/>
			<path style="fill:none;stroke:#222222;stroke-width:0.5;stroke-linecap:round;stroke-linejoin:round;stroke-miterlimit:10;" d="
				M354.047,95.24c0.895-0.076,2.049,0.054,3.346,0.742"/>
			<path style="fill:none;stroke:#222222;stroke-width:0.5;stroke-linecap:round;stroke-linejoin:round;stroke-miterlimit:10;" d="
				M346.951,96.109c-0.887,0.142-1.975,0.547-3.069,1.527"/>
			<path style="fill:#222222;" d="M348.353,100.663c0,0.584-0.473,1.057-1.057,1.057c-0.584,0-1.057-0.473-1.057-1.057
				c0-0.584,0.473-1.057,1.057-1.057C347.879,99.605,348.353,100.079,348.353,100.663z"/>
			<path style="fill:#222222;" d="M355.892,99.444c0,0.584-0.473,1.057-1.057,1.057c-0.584,0-1.057-0.473-1.057-1.057
				s0.473-1.057,1.057-1.057C355.418,98.387,355.892,98.86,355.892,99.444z"/>
		</g>
		<path style="fill:#222222;" d="M363.999,87.412c-1.363-2.508-4.8,0.915-3.44-1.299c1.969-3.207-0.53-6.365-5.107-3.318
			c-4.577,3.047-12.239-6.008-19.474-0.862c-7.235,5.146-3.677,10.726-3.677,10.726s-4.491,0.121-4.941,5.108
			c-0.752,8.333,12.319,8.333,12.319,8.333c-0.229-3.166-2.879-11.275-2.879-11.275c4.077-7.787,14.26-2.04,18.765-1.454
			l2.676,3.359l-0.717-3.393C361.376,92.837,365.447,90.076,363.999,87.412z"/>
		<g>
			<path style="fill:#FB7869;" d="M336.784,100.987c-1.247-0.313-3.172-0.291-4.574,2.049c-2.731,4.557,4.399,9.031,7.839,7.181
				c-0.635-1.18-0.918-2.013-0.918-2.013C337.965,105.591,337.204,103.186,336.784,100.987z"/>
			<path style="fill:none;stroke:#222222;stroke-width:0.5;stroke-linecap:round;stroke-linejoin:round;stroke-miterlimit:10;" d="
				M334.109,106.142c0,0-0.309-2.294,1.492-3.143"/>
			<path style="fill:none;stroke:#222222;stroke-width:0.5;stroke-linecap:round;stroke-linejoin:round;stroke-miterlimit:10;" d="
				M334.638,103.806c0,0,0.232,2.624,3.495,4.194"/>
		</g>
		<path style="fill:none;stroke:#222222;stroke-width:0.5;stroke-linecap:round;stroke-linejoin:round;stroke-miterlimit:10;" d="
			M369.827,190.553l-5.566-30.889c-0.79-4.386-1.885-8.712-3.278-12.946l-6.9-20.985"/>
		<polygon style="fill:#6978ED;" points="323.177,142.651 330.874,173.539 328.801,142.363 		"/>
		<path style="fill:none;stroke:#222222;stroke-width:0.5;stroke-miterlimit:10;" d="M335.601,122.278
			c0.104,6.693,11.695,10.482,11.695,10.482l3.135-4.6l3.653,3.332l1.295-1.82"/>
		<path style="fill:#222222;" d="M353.286,130.764l-2.856-2.605l-2.163,3.174l2.111,2.397c-1.806,3.827-7.293,6.455-15.74,0.66
			c-9.643-6.616-20.774-2.5-24.904,1.304l6.087,4.277c0,0,8.914-5.364,18.268,1.158c8.638,6.023,21.273,3.985,18.08-7.844
			L353.286,130.764z"/>
		<path style="fill:none;stroke:#222222;stroke-width:0.5;stroke-linecap:round;stroke-linejoin:round;stroke-miterlimit:10;" d="
			M283.427,153.495c0,0,3.288,5.307,8.801,7.413"/>
		<path style="fill:#222222;" d="M283.338,157.056c-0.336,0.478-0.801,0.729-1.04,0.561c-0.239-0.168-0.161-0.691,0.175-1.169
			c0.336-0.478,0.801-0.729,1.04-0.561C283.752,156.055,283.673,156.578,283.338,157.056z"/>
		<path style="fill:none;stroke:#222222;stroke-width:0.5;stroke-linecap:round;stroke-linejoin:round;stroke-miterlimit:10;" d="
			M405.608,137.386c0,0,2.5,4.252,0.471,12.875"/>
	</g>
	<g>
		<path style="fill:#222222;" d="M579.514,146.894c-3.041-13.291,10.386-10.538,7.335-23.872
			c-3.05-13.333,16.234-17.246,8.483-23.513c-7.751-6.267-7.536-20.751-0.631-26.719c6.905-5.968,13.62,1.151,13.62,1.151
			c6.248,4.597-6.079,12.815-8.291,7.054c-2.212-5.76,0.167-17.523,13.451-16.358c7.991,0.701,10.197,7.024,10.788,11.035
			c0.244,1.657,1.481,3.016,3.123,3.348c1.754,0.354,4.334-0.433,6.662,2.214c4.656,5.293-2.209,9.349,0.732,13.598
			c2.941,4.249,16.676,4.049,14.388,16.637c-2.288,12.588,22.452,8.634,18.08,26.682L579.514,146.894z"/>
		<path style="fill:#6978ED;" d="M601.578,114.553c0,0-9.637,2.811-13.55,21.786c-3.154,15.294-3.505,18.547-4.913,24.678
			c-0.658,2.864-2.686,8.305,4.913,10.678c7.598,2.373,9.216-8.453,9.997-10.678c0.715-2.037,2.595-8.911,4.407-15.702
			C605.133,135.194,604.839,124.507,601.578,114.553L601.578,114.553z"/>
		<g>
			<path style="fill:#F47365;" d="M572.119,114.287c0,0-1.924-0.751-1.689-2.771c0,0,6.924,0.994,10.936,1.57
				c1.005,0.144,2.088,0.706,2.498,1.008c2.064,1.524,1.294,5.651,1.759,9.261c0.465,3.61,1.157,8.864,1.157,8.864l5.037,31.977
				c0,0,1.415,5.769-5.282,6.418c-3.117,0.302-4.603-2.815-5.244-5.415c-0.91-3.693-1.282-5.455-1.84-8.515
				C578.404,150.943,572.119,114.287,572.119,114.287z"/>
			<path style="fill:#7C7C7C;" d="M545.3,106.873c1.665,7.432,6.408,12.696,10.594,11.758c4.186-0.938,6.23-7.723,4.565-15.154
				c-1.665-7.432-6.408-12.696-10.594-11.758C545.679,92.657,543.635,99.442,545.3,106.873z"/>
			<polygon style="fill:#A6A6A6;" points="552.286,98.85 576.053,96.498 577.725,107.803 555.021,111.057 			"/>
			<path style="fill:#F4F4F4;" d="M550.215,105.724c0.755,3.371,2.907,5.759,4.806,5.334c1.899-0.425,2.826-3.503,2.071-6.874
				c-0.755-3.371-2.907-5.759-4.806-5.334C550.387,99.275,549.46,102.353,550.215,105.724z"/>
			<g>
				<g>
					<g>
						<polygon style="fill:#6978ED;" points="579.922,109.997 583.116,132.497 574.086,132.237 570.973,110.304 						"/>
					</g>
					<g>
						<path style="fill:#6978ED;" d="M574.571,102.879c1.003,4.477,3.86,7.648,6.382,7.083c2.522-0.565,3.753-4.652,2.75-9.129
							c-1.003-4.477-3.86-7.648-6.382-7.083C574.8,94.315,573.569,98.402,574.571,102.879z"/>
					</g>
					<g>
						<path style="fill:#6978ED;" d="M560.459,103.477c-1.222-5.455-4.103-9.73-7.205-11.254l-0.002-0.009l15.309,3.237l8.759-1.7
							l2.601,16.246l-8.946,0.305l-12.799,7.062l-0.002-0.01C560.756,114.879,561.784,109.388,560.459,103.477z"/>
					</g>
				</g>
			</g>
			<path style="fill:#F47365;" d="M581.68,120.532c-4.901,0.502-6.675-4.549-6.675-4.549s-2.096-1.068-2.887-1.695
				c0,0-2.172-1.087-1.689-2.771l10.936,1.57"/>
			<path style="fill:#F47365;" d="M571.972,115.678c0,0,0.599,1.365,2.686,2.358c2.087,0.993,1.711,2.846,1.711,2.846
				s-3.718-0.48-6.34-1.194c-2.622-0.713-3.336-1.259-3.517-3.386c-0.216-2.544,4.799-3.595,4.799-3.595l0.352,2.451
				L571.972,115.678z"/>
			<path style="fill:#F47365;" d="M570.82,116.116c0,0-4.368,1.019-4.135,3.393c0.209,2.125,0.896,2.673,3.517,3.386
				c2.622,0.713,6.34,1.194,6.34,1.194s0.376-1.853-1.711-2.846c-2.087-0.993-2.374-2.742-2.374-2.742"/>
			<path style="fill:#F47365;" d="M570.763,118.857c0,0-4.368,1.019-4.135,3.393c0.209,2.125,0.895,2.673,3.517,3.386
				c2.622,0.713,6.34,1.194,6.34,1.194s0.376-1.854-1.711-2.846c-2.087-0.993-2.374-2.742-2.374-2.742"/>
			<path style="fill:#F47365;" d="M570.794,121.493c0,0-4.136,0.965-3.916,3.213c0.197,2.012,0.848,2.531,3.331,3.207
				c2.483,0.676,6.004,1.131,6.004,1.131s0.356-1.755-1.62-2.695c-1.977-0.94-2.248-2.597-2.248-2.597"/>
			<path style="fill:none;stroke:#020B31;stroke-width:0.5;stroke-linecap:round;stroke-linejoin:round;stroke-miterlimit:10;" d="
				M570.556,112.928c0,0-4.278,0.999-4.045,3.373c0.208,2.125,0.895,2.673,3.517,3.386c2.622,0.713,6.34,1.194,6.34,1.194
				s0.376-1.853-1.711-2.846c-2.087-0.993-2.996-2.878-2.996-2.878"/>
			<path style="fill:none;stroke:#020B31;stroke-width:0.5;stroke-linecap:round;stroke-linejoin:round;stroke-miterlimit:10;" d="
				M567.068,118.182c-0.277,0.384-0.433,0.825-0.384,1.327c0.209,2.125,0.896,2.673,3.517,3.386c2.622,0.713,6.34,1.194,6.34,1.194
				s0.376-1.853-1.711-2.846c-0.483-0.23-0.87-0.5-1.178-0.779"/>
			<path style="fill:none;stroke:#020B31;stroke-width:0.5;stroke-linecap:round;stroke-linejoin:round;stroke-miterlimit:10;" d="
				M566.981,120.969c-0.257,0.373-0.4,0.8-0.352,1.282c0.209,2.125,0.895,2.673,3.517,3.386c2.622,0.713,6.34,1.194,6.34,1.194
				s0.376-1.854-1.711-2.846c-0.15-0.071-0.291-0.147-0.423-0.225"/>
			<path style="fill:none;stroke:#020B31;stroke-width:0.5;stroke-linecap:round;stroke-linejoin:round;stroke-miterlimit:10;" d="
				M581.68,120.532c-4.901,0.502-6.675-4.549-6.675-4.549s-1.936-1.123-2.887-1.695c0,0-2.076-1.039-1.718-2.659"/>
			<path style="fill:none;stroke:#020B31;stroke-width:0.5;stroke-linecap:round;stroke-linejoin:round;stroke-miterlimit:10;" d="
				M566.985,123.918c-0.093,0.243-0.135,0.506-0.107,0.789c0.197,2.012,0.848,2.531,3.331,3.207
				c2.483,0.676,6.004,1.131,6.004,1.131s0.294-1.449-1.134-2.419"/>
		</g>
		<g>
			<g>
				<path style="fill:#7F8284;" d="M611.012,225.671l0.184-0.886l1.833-8.826c-1.097-0.601-1.904-1.34-1.743-2.183
					c0.115-0.6,0.478-0.937,0.955-1.106c1.93-0.684,3.469-2.107,4.211-4.015c1.011-2.599,2.964-4.034,2.964-4.034l1.856,0.814
					l1.537,0.674l0,0c3.137,0.26,6.141,1.384,8.677,3.248l0.095,0.07l-4.127,6.971l-3.614,6.103l-7.203,12.165
					c-3.337,2.819-7.716,1.061-7.716,1.061L611.012,225.671z"/>
			</g>
			<g>
				<path style="fill:#F47365;" d="M610.376,211.942l-34.115-19.297l8.969-9.932c0,0,24.817,16.853,30.912,21.391
					C613.417,210.14,610.376,211.942,610.376,211.942z"/>
				<path style="fill:#FFFFFF;" d="M611.36,213.515L611.36,213.515l-0.984-1.573c0,0,3.041-1.802,5.766-7.838
					c1.78,1.325,2.72,0.502,3.626,1.213l-1.518,3.812C617.139,211.923,614.362,213.691,611.36,213.515z"/>
			</g>
			<path style="fill:#222222;" d="M608.923,235.727c0,0,4.379,1.759,7.716-1.061l7.203-12.165l3.614-6.103l4.127-6.971l1.786,0.623
				l-4.311,7.282l-3.775,6.376l-6.781,11.453c-3.065,5.177-10.167,2.111-10.167,2.111L608.923,235.727z"/>
			<path style="fill:#020B31;" d="M613.96,210.274c-0.901,0.998-1.924,1.957-3.02,2.814l-0.313-0.4
				c3.083-2.414,5.565-5.63,6.323-8.195l0.487,0.145C616.925,206.376,615.658,208.394,613.96,210.274z"/>
		</g>
		<path style="fill:#111111;" d="M582.039,174.948c10.954-0.888,57.138,10.954,57.138,10.954l6.411,30.406
			c-13.325-2.22-23.329-6.467-30.536-10.753l-3.408,9.656c0,0-25.164-6.217-35.822-18.059
			C565.164,185.31,571.085,175.836,582.039,174.948z"/>
		<path style="fill:none;stroke:#FFFFFF;stroke-width:0.5;stroke-miterlimit:10;" d="M622.738,192.509
			c-11.088-3.152-38.045-15.653-41.563-7.792c-2.911,6.507,4.599,10.636,32.643,24.331"/>
		<path style="fill:none;stroke:#FFFFFF;stroke-width:0.5;stroke-linecap:round;stroke-linejoin:round;stroke-miterlimit:10;" d="
			M615.052,205.555c0,0-13.326-7.959-17.026-14.028"/>
		<path style="fill:#6978ED;" d="M619.638,108.928c0,0,17.763-3.849,25.757,18.059c7.993,21.908,7.993,28.125,18.651,42.632
			c10.658,14.507,10.658,29.309,10.658,29.309s-33.75-10.658-58.618-14.211c0,0-7.401-23.092-11.842-28.125
			c0,0-9.474,0.888-7.84-8.337c0,0,3.695-19.196,5.175-33.702C601.578,114.553,608.98,109.816,619.638,108.928z"/>
		<path style="fill:#6978ED;" d="M645.392,126.996c-1.62,6.369-0.62,13.118,2.933,18.647c2.814,4.38,6.296,9.726,9.777,14.888l0,0
			c-5.143-9.164-6.576-16.738-12.708-33.544C645.394,126.987,645.393,126.99,645.392,126.996z"/>
		<path style="fill:none;stroke:#222222;stroke-width:0.5;stroke-linecap:round;stroke-linejoin:round;stroke-miterlimit:10;" d="
			M616.085,184.717c0,0-7.401-23.092-11.842-28.125c0,0-9.474,0.888-7.84-8.337c0,0,3.695-19.196,5.175-33.702"/>
		<path style="fill:none;stroke:#222222;stroke-width:0.5;stroke-linecap:round;stroke-linejoin:round;stroke-miterlimit:10;" d="
			M622.306,150.667c0,0,8.093,2.158,12.75-3.666"/>
		<path style="fill:#222222;" d="M609.987,120.784c0.048,0.422-0.255,0.803-0.677,0.852c-0.422,0.048-0.804-0.255-0.852-0.677
			c-0.048-0.422,0.255-0.804,0.677-0.852C609.557,120.059,609.939,120.362,609.987,120.784z"/>
		<path style="fill:#222222;" d="M610.639,125.241c0.048,0.422-0.255,0.803-0.677,0.852c-0.422,0.048-0.804-0.255-0.852-0.677
			c-0.048-0.422,0.255-0.803,0.677-0.851C610.21,124.515,610.591,124.819,610.639,125.241z"/>
		<g>
			<g>
				<path style="fill:#7F8284;" d="M578.536,205.055l0.856-0.292l8.532-2.909c-0.04-1.25,0.186-2.321,0.993-2.611
					c0.575-0.206,1.05-0.065,1.438,0.26c1.57,1.314,3.578,1.916,5.598,1.585c2.752-0.451,4.981,0.501,4.981,0.501l0.243,2.012
					l0.201,1.666l0,0c1.371,2.833,1.931,5.991,1.615,9.123l-0.012,0.117l-8.101-0.01l-7.093-0.008l-14.137-0.017
					c-4.124-1.44-4.837-6.105-4.837-6.105L578.536,205.055z"/>
			</g>
			<g>
				<path style="fill:#F47365;" d="M590.035,197.527l-0.729-39.187l13.113,2.673c0,0-1.893,29.939-2.702,37.495
					C593.133,199.229,590.035,197.527,590.035,197.527z"/>
				<path style="fill:#FFFFFF;" d="M589.181,199.174L589.181,199.174l0.854-1.647c0,0,3.098,1.702,9.681,0.98
					c-0.236,2.207,0.951,2.598,0.799,3.739l-4.054,0.631C593.49,203.341,590.556,201.848,589.181,199.174z"/>
			</g>
			<path style="fill:#222222;" d="M568.815,208.369c0,0,0.712,4.665,4.837,6.105l14.137,0.017l7.093,0.008l8.101,0.01l0.372,1.854
				l-8.463-0.01l-7.409-0.009l-13.31-0.016c-6.017-0.007-6.987-7.681-6.987-7.681L568.815,208.369z"/>
			<path style="fill:#020B31;" d="M593.294,199.765c-1.318-0.269-2.663-0.661-3.959-1.169l0.186-0.473
				c3.647,1.427,7.678,1.93,10.272,1.278l0.123,0.493C598.158,200.335,595.776,200.271,593.294,199.765z"/>
		</g>
		<path style="fill:#222222;" d="M588.651,199.687c0.395-8.882-1.579-21.711,0-44.211s19.251-32.633,35.425-8.583
			c9.388,13.96,26.549,41.148,26.549,41.148l24.079,10.559c0,0-1.974,17.665-22.105,17.862s-30.449-7.188-33.553-17.862
			c-0.965-3.32-7.919-21.658-12.541-33.921c-0.325,3.571-0.555,7.315-0.485,10.335c0.197,8.487-4.934,24.671-4.934,24.671
			S594.48,202.997,588.651,199.687z"/>
		<path style="fill:none;stroke:#FFFFFF;stroke-width:0.5;stroke-miterlimit:10;" d="M666.862,195.163
			c-4.348,9.37-7.706,11.664-13.144,11.664c-7.174,0-10.799-4.897-18.259-19.907c-19.374-38.978-22.103-40.453-29.309-39.522
			c-7.254,0.937-6.012,6.4-5.62,15.979c0.644,15.726-3.202,37.5-3.202,37.5"/>
		<g>
			<path style="fill:#FB7869;" d="M593.766,95.154c0,0-3.972-0.539-3.706-4.698c0.268-4.191,4.22-2.998,4.22-2.998
				S593.32,90.378,593.766,95.154z"/>
			<path style="fill:none;stroke:#222222;stroke-width:0.5;stroke-linecap:round;stroke-linejoin:round;stroke-miterlimit:10;" d="
				M593.081,88.807c0,0-1.565-0.338-2.208,1.359"/>
			<path style="fill:none;stroke:#222222;stroke-width:0.5;stroke-linecap:round;stroke-linejoin:round;stroke-miterlimit:10;" d="
				M592.104,89.054c0,0-0.547,1.673,0.563,3.193"/>
			<path style="fill:#6978ED;" d="M594.273,94.719c0.088,0.879-0.554,1.662-1.433,1.75c-0.879,0.088-1.662-0.554-1.75-1.433
				c-0.088-0.879,0.554-1.662,1.433-1.75C593.402,93.199,594.185,93.84,594.273,94.719z"/>
		</g>
		<path style="fill:#FB7869;" d="M620.262,85.234c1.524,6.119,0.225,12.851-1.634,15.843c-0.345,0.555-0.721,1.046-1.11,1.51
			c-4.313,5.152-10.907,4.97-10.907,4.97s-0.276-0.019-0.742-0.104c-2.504-0.457-10.525-2.816-11.003-14.326
			c-0.189-4.551,0.716-8.392,2.006-11.492c0.85-2.042,2.156-3.704,3.728-4.942l1.803,1.831
			C607.082,83.274,613.612,85.728,620.262,85.234L620.262,85.234z"/>
		<g>
			<g>
				<path style="fill:#FB7869;" d="M621.74,94.595c0,0,4.898-0.416,4.827-5.525c-0.071-5.149-4.984-3.931-4.984-3.931
					S622.579,88.773,621.74,94.595z"/>
				<path style="fill:none;stroke:#222222;stroke-width:0.5;stroke-linecap:round;stroke-linejoin:round;stroke-miterlimit:10;" d="
					M622.968,86.864c0,0,1.937-0.317,2.62,1.801"/>
				<path style="fill:none;stroke:#222222;stroke-width:0.5;stroke-linecap:round;stroke-linejoin:round;stroke-miterlimit:10;" d="
					M624.15,87.227c0,0,0.567,2.082-0.885,3.876"/>
			</g>
		</g>
		<path style="fill:#6978ED;" d="M625.52,93.174c0.107,0.877-0.516,1.674-1.393,1.782c-0.877,0.107-1.674-0.516-1.782-1.393
			c-0.107-0.877,0.516-1.674,1.393-1.782C624.615,91.674,625.412,92.297,625.52,93.174z"/>
		<path style="fill:#FB7869;" d="M605.192,113.578l0.135-2.37l0.063-3.818c0.432,0.082,0.688,0.102,0.688,0.102
			s5.14,0.575,10.317-3.816l1.281,6.5l0.094,0.678c0,0-0.191,6.411-7.82,7.39C604.538,118.938,605.192,113.578,605.192,113.578z"/>
		<path style="fill:#F27364;" d="M616.155,105.976c0.189-0.226,0.374-0.458,0.555-0.7l-0.315-1.6
			c-5.177,4.391-10.317,3.816-10.317,3.816s-0.256-0.02-0.688-0.102l-0.044,3.388C606.781,110.731,612.367,110.501,616.155,105.976z
			"/>
		<path style="fill:#6978ED;" d="M676.396,113.308c0,0-28.901,15.004-35.715,14.81c-6.815-0.194-18.852-15.489-14.512-19.179
			l40.421-5.424c0,0,7.909,0.255,9.39,7.743L676.396,113.308z"/>
		<path style="fill:#FB7869;" d="M677.069,79.16c3.207,11.177,5.404,30.812-0.673,34.148l-0.24-0.11
			c-4.426-2.041-8.558-4.904-9.318-9.719l0.821-28.554c-0.188-2.411-0.988-2.577-1.99-4.617c-1.002-2.04-3.035-12.603-3.035-12.603
			s2.578-1.151,3.66,5.531c0,0,1.018,1.403,1.625-0.237c0.607-1.64,2.493-11.928,2.493-11.928s0.279-2.438,1.731-2.156l-0.4,8.872
			l3.419-10.895c0,0,1.595,0.786,0.814,3.65l0.655-2.281c0,0,1.669,0.321,0.704,4.833c-0.964,4.512-1.34,7.74-1.34,7.74l2.609-3.976
			c0,0,0.376-4.568,1.818-4.355c0,0,0.327,4.183,0.143,5.338c-0.184,1.155-5.141,14.076-5.141,14.076s-0.06,1.043,0.029,2.135
			C675.541,75.146,677.069,79.16,677.069,79.16z"/>
		
			<line style="fill:none;stroke:#222222;stroke-width:0.5;stroke-linecap:round;stroke-linejoin:round;stroke-miterlimit:10;" x1="675.975" y1="50.544" x2="673.559" y2="60.125"/>
		<path style="fill:none;stroke:#222222;stroke-width:0.5;stroke-linecap:round;stroke-linejoin:round;stroke-miterlimit:10;" d="
			M669.951,59.531c0,0,3.743-0.444,7.12,2.891"/>
		<path style="fill:none;stroke:#222222;stroke-width:0.5;stroke-linecap:round;stroke-linejoin:round;stroke-miterlimit:10;" d="
			M667.254,63.784c0,0,3.837,1.152,3.81,5.81"/>
		<g>
			<g>
				<path style="fill:none;stroke:#222222;stroke-width:0.5;stroke-linecap:round;stroke-linejoin:round;stroke-miterlimit:10;" d="
					M610.167,85.506c0.952,0.551,2.02,1.491,2.84,3.092"/>
				<path style="fill:none;stroke:#222222;stroke-width:0.5;stroke-linecap:round;stroke-linejoin:round;stroke-miterlimit:10;" d="
					M599.443,87.624c0.336-0.822,0.97-1.779,2.159-2.612"/>
				<path style="fill:none;stroke:#222222;stroke-width:0.5;stroke-linecap:round;stroke-linejoin:round;stroke-miterlimit:10;" d="
					M605.56,88.836c0,0-0.127,2.096-2.152,3.651c-2.471,1.897-1.785,2.837,0.103,3.861"/>
				<path style="fill:#F43D4F;" d="M606.876,97.655c-1.009-0.437-1.2,0.919-1.2,0.919s-1.207-0.909-1.588,0.106
					c-0.33,0.88,1.593,2.172,2.237,1.95C606.969,100.408,607.738,98.029,606.876,97.655z"/>
				<path style="opacity:0.5;fill:#F43D4F;" d="M612.05,94.978c-0.617-0.91-1.506,0.132-1.506,0.132s-0.531-1.414-1.398-0.761
					c-0.75,0.566,0.181,2.687,0.844,2.845C610.653,97.352,612.577,95.756,612.05,94.978z"/>
				<path style="opacity:0.5;fill:#F43D4F;" d="M597.389,95.729c0.521-0.968,1.511-0.022,1.511-0.022s0.384-1.461,1.312-0.9
					c0.804,0.486,0.095,2.691-0.549,2.917C599.021,97.948,596.944,96.557,597.389,95.729z"/>
				<path style="fill:none;stroke:#222222;stroke-width:0.5;stroke-linecap:round;stroke-linejoin:round;stroke-miterlimit:10;" d="
					M603.285,99.346c0,0,2.966,1.037,4.808-1.748"/>
				<path style="fill:#222222;" d="M610.411,91.57c-0.06,0.638-0.625,1.106-1.262,1.047c-0.638-0.06-1.106-0.625-1.047-1.263
					c0.06-0.638,0.625-1.106,1.262-1.047C610.002,90.367,610.471,90.933,610.411,91.57z"/>
				<path style="fill:none;stroke:#222222;stroke-width:0.5;stroke-linecap:round;stroke-linejoin:round;stroke-miterlimit:10;" d="
					M612.71,91.719c-0.861,0.18-1.998,0.19-3.341-0.325"/>
				<path style="fill:none;stroke:#222222;stroke-width:0.5;stroke-linecap:round;stroke-linejoin:round;stroke-miterlimit:10;" d="
					M612.682,90.463c-0.755,0.451-1.826,0.832-3.264,0.783"/>
				<path style="fill:none;stroke:#222222;stroke-width:0.5;stroke-linecap:round;stroke-linejoin:round;stroke-miterlimit:10;" d="
					M598.166,88.957c0.674,0.565,1.671,1.112,3.097,1.293"/>
				<path style="fill:none;stroke:#222222;stroke-width:0.5;stroke-linecap:round;stroke-linejoin:round;stroke-miterlimit:10;" d="
					M598.784,87.862c0.452,0.755,1.216,1.597,2.506,2.233"/>
				<path style="fill:#222222;" d="M602.386,90.368c-0.06,0.638-0.625,1.106-1.262,1.047c-0.638-0.06-1.106-0.625-1.047-1.262
					c0.06-0.638,0.625-1.106,1.263-1.047C601.977,89.165,602.445,89.73,602.386,90.368z"/>
			</g>
		</g>
		<path style="fill:none;stroke:#FFFFFF;stroke-width:0.5;stroke-linecap:round;stroke-linejoin:round;stroke-miterlimit:10;" d="
			M606.504,165.007c0,0-0.485-7.379-3.149-12.855"/>
	</g>
</g>
</svg>
