<?xml version="1.0" encoding="utf-8"?>
<!-- Uploaded to: SVG Repo, www.svgrepo.com, Generator: SVG Repo Mixer Tools -->
<svg width="800px" height="800px" viewBox="0 0 1024 1024" class="icon"  version="1.1" xmlns="http://www.w3.org/2000/svg"><path d="M54.296 225.944h841.8v670.336H54.296z" fill="#F6AB20" /><path d="M812.904 225.944H54.296v670.328h330.472z" fill="#F5A517" /><path d="M984.52 940.952H76.544a31.472 31.472 0 0 1-31.488-31.488V123.288c0-17.4 14.08-31.488 31.488-31.488s31.488 14.08 31.488 31.488v754.696h876.496a31.472 31.472 0 0 1 31.48 31.488 31.472 31.472 0 0 1-31.488 31.48z" fill="#E6246B" /><path d="M260.632 692.352a22.896 22.896 0 0 1-14.872-40.304l116.176-111.912a22.704 22.704 0 0 1 21.256-4.584l193.424 56.232 154.808-241.2a22.896 22.896 0 1 1 38.568 24.728L605.92 630.936a22.888 22.888 0 0 1-25.664 9.616L382.272 582.96 275.504 686.848a22.768 22.768 0 0 1-14.872 5.504z" fill="#0093D3" /></svg>