<?xml version="1.0" encoding="iso-8859-1"?>
<!-- Uploaded to: SVG Repo, www.svgrepo.com, Generator: SVG Repo Mixer Tools -->
<svg version="1.1" id="Layer_1" xmlns="http://www.w3.org/2000/svg" xmlns:xlink="http://www.w3.org/1999/xlink" 
	 viewBox="0 0 512 512" xml:space="preserve">
<path style="fill:#3F5968;" d="M330.504,381.52v45.528c0,41.141-33.351,74.502-74.504,74.502l0,0
	c-41.149,0-74.504-33.362-74.504-74.502V381.52H330.504z"/>
<path style="fill:#FFD41D;" d="M410.742,243.867c0-85.454-69.28-154.723-154.742-154.723c-85.459,0-154.742,69.269-154.742,154.723
	c0,58.306,33.514,110.309,81.133,136.691v29.292h147.247v-28.604C377.255,354.858,410.742,302.173,410.742,243.867z"/>
<rect x="181.52" y="381.524" style="fill:#10BAFC;" width="148.982" height="28.327"/>
<path d="M256,78.694c-91.087,0-165.191,74.096-165.191,165.172c0,30.006,8.378,59.655,24.229,85.743
	c14.046,23.118,33.319,42.491,56.01,56.411v41.029C171.047,473.89,209.156,512,256,512s84.953-38.109,84.953-84.951v-40.331
	c48.96-30.097,80.239-85.373,80.239-142.851C421.191,152.79,347.087,78.694,256,78.694z M192.839,391.969h126.349v7.431H192.839
	V391.969z M256,491.102c-35.32,0-64.055-28.734-64.055-64.053v-6.75h128.11v6.75C320.055,462.368,291.32,491.102,256,491.102z
	 M326.365,371.071H186.853c-45.669-25.597-75.146-75.444-75.146-127.205c0-79.553,64.729-144.274,144.293-144.274
	s144.293,64.721,144.293,144.274C400.293,295.59,371.335,345.276,326.365,371.071z"/>
<path d="M256,64.793c5.771,0,10.449-4.679,10.449-10.449V10.449C266.449,4.679,261.771,0,256,0c-5.771,0-10.449,4.679-10.449,10.449
	v43.895C245.551,60.114,250.229,64.793,256,64.793z"/>
<path d="M123.002,119.884c2.675,0,5.35-1.021,7.391-3.063c4.079-4.081,4.078-10.697-0.003-14.777L99.339,71.007
	c-4.082-4.081-10.698-4.08-14.778,0.003c-4.079,4.081-4.078,10.697,0.003,14.777l31.051,31.039
	C117.656,118.866,120.329,119.884,123.002,119.884z"/>
<path d="M427.438,71.008c-4.08-4.078-10.697-4.079-14.777,0l-31.04,31.039c-4.08,4.08-4.081,10.697,0,14.778
	c2.041,2.04,4.715,3.061,7.388,3.061c2.674,0,5.349-1.021,7.388-3.061l31.04-31.039C431.518,81.705,431.519,75.088,427.438,71.008z"
	/>
<path d="M256.128,208.632c5.771,0,10.449-4.679,10.449-10.449v-10.236c8.686,3.978,14.739,12.747,14.739,22.908
	c0,5.77,4.678,10.449,10.449,10.449c5.771,0,10.449-4.679,10.449-10.449c0-21.816-15.244-40.128-35.637-44.875v-5.575
	c0-5.77-4.678-10.449-10.449-10.449c-5.771,0-10.449,4.679-10.449,10.449v5.575c-20.392,4.748-35.636,23.059-35.636,44.875
	c0,21.817,15.244,40.129,35.636,44.876v49.305c-8.686-3.978-14.738-12.747-14.738-22.909c0-5.77-4.678-10.449-10.449-10.449
	s-10.449,4.679-10.449,10.449c0,21.857,15.301,40.197,35.751,44.902c0.715,5.074,5.063,8.983,10.334,8.983
	c5.271,0,9.619-3.908,10.334-8.983c20.451-4.705,35.752-23.045,35.752-44.903c0-21.816-15.244-40.127-35.637-44.874v-11.033
	c0-5.77-4.678-10.449-10.449-10.449c-5.771,0-10.449,4.679-10.449,10.449v7.545c-8.686-3.978-14.738-12.747-14.738-22.909
	c0-10.162,6.052-18.93,14.738-22.908v10.236C245.679,203.953,250.357,208.632,256.128,208.632z M281.316,282.127
	c0,10.162-6.053,18.931-14.739,22.909v-45.817C275.263,263.196,281.316,271.965,281.316,282.127z"/>
</svg>